<svg width="32" height="32" viewBox="0 0 32 32" fill="none" xmlns="http://www.w3.org/2000/svg">
<path d="M16.2 11.3C15.4 11.3 14.7 11.6 14.1 12.1C13.5 12.6 13 13.4 12.7 14.3C12.4 15.3 12.2 16.2 12.2 17.2C12.2 18.1 12.4 18.9 12.8 19.4C13.2 19.9 13.8 20.2 14.7 20.2C15.2 20.2 15.8 20 16.3 19.7C16.8 19.4 17.3 18.8 17.7 18.2C18.1 17.5 18.4 16.8 18.6 15.9C18.8 15.1 18.9 14.4 18.9 13.9C18.9 13.1 18.7 12.5 18.2 12C17.7 11.5 17 11.3 16.2 11.3Z" fill="#D9D9D9"/>
<path d="M16 0C7.2 0 0 7.2 0 16C0 24.8 7.2 32 16 32C24.8 32 32 24.8 32 16C32 7.2 24.8 0 16 0ZM26.2 18.1C25.7 19.3 24.9 20.3 24 21C23.1 21.7 22.1 22.1 21 22.1C20.2 22.1 19.6 21.9 19.2 21.5C18.8 21.1 18.6 20.6 18.6 19.9C18.6 19.6 18.6 19.3 18.7 19.1H18.6C18.2 20 17.6 20.7 16.7 21.2C15.9 21.8 15 22 14.2 22C12.9 22 11.9 21.6 11.2 20.7C10.5 19.9 10.1 18.7 10.1 17.2C10.1 15.8 10.4 14.6 10.9 13.4C11.4 12.2 12.2 11.3 13.1 10.6C14.1 9.9 15.1 9.6 16.3 9.6C17.9 9.6 19 10.3 19.6 11.8H19.7L20.2 9.9H22.1L20.6 16.2C20.3 17.6 20.1 18.6 20.1 19.2C20.1 19.6 20.2 19.9 20.4 20.1C20.6 20.3 20.8 20.4 21.1 20.4C21.8 20.4 22.4 20.1 23 19.5C23.6 18.9 24.1 18.1 24.4 17.2C24.8 16.2 24.9 15.2 24.9 14C24.9 12.5 24.6 11.3 23.9 10.1C23.3 9 22.3 8.1 21.1 7.5C19.9 6.9 18.5 6.6 16.9 6.6C14.9 6.6 13.1 7 11.6 7.9C10.1 8.8 8.9 10 8 11.7C7.5 13.3 7 15.2 7 17.2C7 18.8 7.3 20.2 8 21.5C8.7 22.7 9.6 23.7 10.8 24.3C12 24.9 13.4 25.2 15 25.2C17.4 25.2 19.9 24.6 22.4 23.3L23.2 24.8C21.8 25.6 20.4 26.2 19.1 26.5C17.8 26.8 16.4 27 15 27C13 27 11.3 26.6 9.8 25.8C8.3 25 7.1 23.9 6.3 22.4C5.4 20.9 5 19.2 5 17.2C5 14.8 5.5 12.7 6.6 10.8C7.7 8.9 9.1 7.4 11 6.4C12.9 5.4 14.9 4.8 17.2 4.8C19.2 4.8 21 5.2 22.5 5.9C24 6.7 25.1 7.7 25.9 9.1C26.7 10.5 27.1 12.1 27.1 13.9C27 15.4 26.7 16.8 26.2 18.1Z" fill="#D9D9D9"/>
</svg>
