<svg width="33" height="30" viewBox="0 0 33 30" fill="none" xmlns="http://www.w3.org/2000/svg">
<path d="M16 0C7.2 0 0 6.77805 0 15.2274C0 21.8197 4.4 27.3907 10.5 29.5263C10.6 29.5263 10.6 29.5263 10.7 29.5263C12.2 29.8048 12 28.7835 12 28.7835V26.0909C12 26.0909 8.3 26.8337 6.9 24.6981C6.9 24.6981 6.4 23.6768 6.2 23.2125C6 22.7482 5.4 22.1912 4.8 21.8197C4.2 21.4483 4.6 21.077 4.6 21.077C4.6 21.077 5.5 20.5198 7.5 22.3769C7.5 22.3769 8.6 24.6052 11 24.141C11 24.141 12.1 23.9553 12.3 23.7696C12.5 23.5839 12.1 22.934 13.3 21.7269C13.3 21.7269 7 21.6341 6.2 16.1559C6.2 16.1559 5.4 12.349 7.7 10.2135C7.7 10.2135 6.8 8.26365 7.9 6.1281C7.9 6.1281 9.5 5.9424 12.2 7.70655C12.2 7.70655 16 6.59235 20.3 7.70655C20.3 7.70655 22.9 6.03525 24.7 6.1281C24.7 6.1281 25.6 8.3565 24.9 10.2135C24.9 10.2135 27.2 12.4419 26.3 16.6201C25.4 20.8912 20.6 21.6341 19.3 21.7269C19.3 21.7269 20.3 23.0268 20.3 24.3267C20.3 25.6266 20.3 28.7835 20.3 28.7835C20.3 28.7835 20.5 29.8977 21.8 29.3406C22.3 29.062 21.9 29.2477 21.4 29.6192C27.8 27.5765 32.4 21.9126 32.4 15.1345C32 6.77805 24.8 0 16 0Z" fill="#D9D9D9"/>
</svg>
