<svg width="32" height="32" viewBox="0 0 32 32" fill="none" xmlns="http://www.w3.org/2000/svg">
<path d="M16 0C7.2 0 0 7.2 0 16C0 24.8 7.2 32 16 32C24.8 32 32 24.8 32 16C32 7.2 24.8 0 16 0ZM11.4 24.2H7.4V12.4H11.4V24.2ZM9.4 11.1C8.2 11.1 7.2 10.1 7.2 8.9C7.2 7.7 8.2 6.7 9.4 6.7C10.6 6.7 11.6 7.7 11.6 8.9C11.6 10.1 10.6 11.1 9.4 11.1ZM25.4 24.2H21.4V17.2C21.4 17.2 21.4 15.2 19.6 15.2C17.8 15.2 17.5 17.1 17.5 17.1V24.1H13.6V12.4H17.5V14.1C17.5 14.1 18.6 11.7 22 12.2C25.3 12.7 25.5 16.8 25.5 16.8V24.2H25.4Z" fill="#D9D9D9"/>
</svg>
