<svg width="314" height="62" viewBox="0 0 314 62" fill="none" xmlns="http://www.w3.org/2000/svg">
<path d="M291.6 35.04C291.6 32.8533 291.8 30.72 292.2 28.64C292.627 26.56 293.28 24.5733 294.16 22.68C295.04 20.7867 296.147 19.04 297.48 17.44H300.8C299.573 19.0933 298.533 20.88 297.68 22.8C296.853 24.72 296.227 26.7067 295.8 28.76C295.373 30.8133 295.16 32.8933 295.16 35C295.16 37.0533 295.373 39.0933 295.8 41.12C296.227 43.1467 296.853 45.0933 297.68 46.96C298.507 48.8533 299.533 50.64 300.76 52.32H297.48C296.147 50.7467 295.04 49.0267 294.16 47.16C293.28 45.32 292.627 43.3733 292.2 41.32C291.8 39.2667 291.6 37.1733 291.6 35.04ZM312.392 35.04C312.392 37.1733 312.179 39.2667 311.752 41.32C311.352 43.3733 310.712 45.32 309.832 47.16C308.979 49.0267 307.872 50.7467 306.512 52.32H303.232C304.459 50.64 305.486 48.8533 306.312 46.96C307.139 45.0933 307.766 43.1467 308.192 41.12C308.619 39.0933 308.832 37.0533 308.832 35C308.832 32.8933 308.619 30.8133 308.192 28.76C307.766 26.7067 307.139 24.72 306.312 22.8C305.486 20.88 304.446 19.0933 303.192 17.44H306.512C307.872 19.04 308.979 20.7867 309.832 22.68C310.712 24.5733 311.352 26.56 311.752 28.64C312.179 30.72 312.392 32.8533 312.392 35.04Z" fill="#A563D6"/>
<path d="M11.9727 31.2695V40.9961H17.6758C18.6393 40.9961 19.3229 41.1849 19.7266 41.5625C20.1432 41.9271 20.3516 42.4089 20.3516 43.0078C20.3516 43.5938 20.1432 44.0755 19.7266 44.4531C19.3229 44.8177 18.6393 45 17.6758 45H5.58594C4.6224 45 3.93229 44.8177 3.51562 44.4531C3.11198 44.0755 2.91016 43.5872 2.91016 42.9883C2.91016 42.4023 3.11198 41.9271 3.51562 41.5625C3.93229 41.1849 4.6224 40.9961 5.58594 40.9961H7.96875V31.2695H6.05469C5.09115 31.2695 4.40104 31.0872 3.98438 30.7227C3.58073 30.3451 3.37891 29.8568 3.37891 29.2578C3.37891 28.6719 3.58073 28.1966 3.98438 27.832C4.40104 27.4544 5.09115 27.2656 6.05469 27.2656H7.96875V25.7422C7.96875 23.9974 8.61979 22.5521 9.92188 21.4062C11.237 20.2474 13.138 19.668 15.625 19.668C16.7318 19.668 18.0078 19.7721 19.4531 19.9805C20.9115 20.1758 21.8424 20.4557 22.2461 20.8203C22.6628 21.1849 22.8711 21.6536 22.8711 22.2266C22.8711 22.8385 22.6888 23.3398 22.3242 23.7305C21.9596 24.1081 21.5104 24.2969 20.9766 24.2969C20.7292 24.2969 20.3581 24.2513 19.8633 24.1602C18.2096 23.8346 16.7448 23.6719 15.4688 23.6719C14.1406 23.6719 13.2227 23.8737 12.7148 24.2773C12.2201 24.668 11.9727 25.1562 11.9727 25.7422V27.2656H18.1445C19.1081 27.2656 19.7917 27.4544 20.1953 27.832C20.612 28.1966 20.8203 28.6784 20.8203 29.2773C20.8203 29.8633 20.612 30.3451 20.1953 30.7227C19.7917 31.0872 19.1081 31.2695 18.1445 31.2695H11.9727ZM38.0273 19.668V40.9961H42.832C43.7956 40.9961 44.4792 41.1849 44.8828 41.5625C45.2995 41.9271 45.5078 42.4089 45.5078 43.0078C45.5078 43.5938 45.2995 44.0755 44.8828 44.4531C44.4792 44.8177 43.7956 45 42.832 45H29.2188C28.2552 45 27.5651 44.8177 27.1484 44.4531C26.7448 44.0755 26.543 43.5872 26.543 42.9883C26.543 42.4023 26.7448 41.9271 27.1484 41.5625C27.5651 41.1849 28.2552 40.9961 29.2188 40.9961H34.0234V23.6719H30.8008C29.8503 23.6719 29.1667 23.4896 28.75 23.125C28.3333 22.7474 28.125 22.2591 28.125 21.6602C28.125 21.0742 28.3268 20.599 28.7305 20.2344C29.1471 19.8568 29.8372 19.668 30.8008 19.668H38.0273ZM63.6523 45V44.0625C62.6497 44.5964 61.543 44.9935 60.332 45.2539C59.1211 45.5273 58.0208 45.6641 57.0312 45.6641C54.8828 45.6641 53.138 45.0977 51.7969 43.9648C50.4557 42.819 49.7852 41.556 49.7852 40.1758C49.7852 38.4961 50.638 36.9401 52.3438 35.5078C54.0625 34.0625 56.4323 33.3398 59.4531 33.3398C60.6641 33.3398 62.0638 33.4701 63.6523 33.7305V32.7734C63.6523 32.1745 63.3919 31.6862 62.8711 31.3086C62.3633 30.931 61.3867 30.7422 59.9414 30.7422C58.7565 30.7422 57.2201 30.9766 55.332 31.4453C54.6289 31.6146 54.082 31.6992 53.6914 31.6992C53.1576 31.6992 52.7018 31.5104 52.3242 31.1328C51.9596 30.7422 51.7773 30.2474 51.7773 29.6484C51.7773 29.3099 51.8424 29.0169 51.9727 28.7695C52.1029 28.5221 52.2852 28.3268 52.5195 28.1836C52.7539 28.0273 53.2422 27.8451 53.9844 27.6367C54.974 27.3633 55.9831 27.1484 57.0117 26.9922C58.0404 26.8229 58.9714 26.7383 59.8047 26.7383C62.2917 26.7383 64.2188 27.2786 65.5859 28.3594C66.9661 29.4271 67.6562 30.8919 67.6562 32.7539V40.9961H68.3398C69.3034 40.9961 69.987 41.1849 70.3906 41.5625C70.8073 41.9271 71.0156 42.4089 71.0156 43.0078C71.0156 43.5938 70.8073 44.0755 70.3906 44.4531C69.987 44.8177 69.3034 45 68.3398 45H63.6523ZM63.6523 37.832C62.0508 37.5195 60.5729 37.3633 59.2188 37.3633C57.5911 37.3633 56.1914 37.7604 55.0195 38.5547C54.2904 39.0625 53.9258 39.5768 53.9258 40.0977C53.9258 40.4753 54.1016 40.7812 54.4531 41.0156C55.1042 41.4453 55.9961 41.6602 57.1289 41.6602C58.0924 41.6602 59.1797 41.4714 60.3906 41.0938C61.6146 40.7161 62.7018 40.2018 63.6523 39.5508V37.832ZM63.0664 20.8789L58.6719 24.4531C58.2292 24.8047 57.8581 24.9805 57.5586 24.9805C57.194 24.9805 56.8815 24.8568 56.6211 24.6094C56.3737 24.362 56.25 24.056 56.25 23.6914C56.25 23.2747 56.5104 22.8581 57.0312 22.4414L61.4453 18.8672C61.888 18.5156 62.2591 18.3398 62.5586 18.3398C62.9232 18.3398 63.2292 18.4635 63.4766 18.7109C63.737 18.9583 63.8672 19.2578 63.8672 19.6094C63.8672 20.0391 63.6003 20.4622 63.0664 20.8789ZM84.1016 40.1367L88.418 31.2695C87.3503 31.2695 86.6667 31.1784 86.3672 30.9961C85.7161 30.5924 85.3906 30.013 85.3906 29.2578C85.3906 28.6719 85.5924 28.1966 85.9961 27.832C86.4128 27.4544 87.1029 27.2656 88.0664 27.2656H93.5547C94.5182 27.2656 95.2018 27.4544 95.6055 27.832C96.0221 28.1966 96.2305 28.6784 96.2305 29.2773C96.2305 29.8633 96.0221 30.3451 95.6055 30.7227C95.2018 31.0872 94.5182 31.2695 93.5547 31.2695H92.8906L86.1914 45H82.0117L75.3125 31.2695H74.7461C73.7826 31.2695 73.0924 31.0872 72.6758 30.7227C72.2721 30.3451 72.0703 29.8568 72.0703 29.2578C72.0703 28.6719 72.2721 28.1966 72.6758 27.832C73.0924 27.4544 73.7826 27.2656 74.7461 27.2656H80.1172C81.0677 27.2656 81.7448 27.4544 82.1484 27.832C82.5651 28.1966 82.7734 28.6784 82.7734 29.2773C82.7734 30.0195 82.4609 30.5859 81.8359 30.9766C81.5234 31.1719 80.8268 31.2695 79.7461 31.2695L84.1016 40.1367ZM109.531 19.668V23.9062H104.766V19.668H109.531ZM110.078 27.2656V40.9961H114.883C115.846 40.9961 116.53 41.1849 116.934 41.5625C117.35 41.9271 117.559 42.4089 117.559 43.0078C117.559 43.5938 117.35 44.0755 116.934 44.4531C116.53 44.8177 115.846 45 114.883 45H101.27C100.306 45 99.6159 44.8177 99.1992 44.4531C98.7956 44.0755 98.5938 43.5872 98.5938 42.9883C98.5938 42.4023 98.7956 41.9271 99.1992 41.5625C99.6159 41.1849 100.306 40.9961 101.27 40.9961H106.074V31.2695H102.852C101.901 31.2695 101.217 31.0872 100.801 30.7227C100.384 30.3451 100.176 29.8568 100.176 29.2578C100.176 28.6719 100.378 28.1966 100.781 27.832C101.198 27.4544 101.888 27.2656 102.852 27.2656H110.078ZM142.52 36.4648C142.52 38.0013 142.09 39.4922 141.23 40.9375C140.384 42.3698 139.115 43.5156 137.422 44.375C135.742 45.2214 133.984 45.6445 132.148 45.6445C130.326 45.6445 128.581 45.2279 126.914 44.3945C125.247 43.5482 123.978 42.4023 123.105 40.957C122.233 39.5117 121.797 38.0013 121.797 36.4258C121.797 34.8242 122.24 33.2552 123.125 31.7188C124.01 30.1693 125.28 28.9518 126.934 28.0664C128.6 27.181 130.339 26.7383 132.148 26.7383C133.971 26.7383 135.723 27.194 137.402 28.1055C139.095 29.0039 140.371 30.2214 141.23 31.7578C142.09 33.2812 142.52 34.8503 142.52 36.4648ZM138.516 36.4844C138.516 35.1953 138.053 34.0104 137.129 32.9297C135.866 31.4714 134.206 30.7422 132.148 30.7422C130.339 30.7422 128.828 31.3216 127.617 32.4805C126.406 33.6393 125.801 34.9805 125.801 36.5039C125.801 37.7539 126.413 38.9258 127.637 40.0195C128.861 41.1003 130.365 41.6406 132.148 41.6406C133.945 41.6406 135.456 41.1003 136.68 40.0195C137.904 38.9258 138.516 37.7474 138.516 36.4844ZM149.883 29.0625V40.9961H151.328C152.292 40.9961 152.975 41.1849 153.379 41.5625C153.796 41.9271 154.004 42.4089 154.004 43.0078C154.004 43.5938 153.796 44.0755 153.379 44.4531C152.975 44.8177 152.292 45 151.328 45H146.074C145.111 45 144.427 44.8177 144.023 44.4531C143.607 44.0755 143.398 43.5872 143.398 42.9883C143.398 42.4023 143.6 41.9271 144.004 41.5625C144.408 41.1849 145.033 40.9961 145.879 40.9961V25.332C145.176 25.2669 144.642 25.0521 144.277 24.6875C143.926 24.3229 143.75 23.8672 143.75 23.3203C143.75 22.7214 143.952 22.2396 144.355 21.875C144.772 21.4974 145.462 21.3086 146.426 21.3086L150.82 21.3281L156.27 33.3789L161.621 21.3086L166.055 21.3281C167.018 21.3281 167.702 21.5104 168.105 21.875C168.522 22.2396 168.73 22.7214 168.73 23.3203C168.73 23.8672 168.548 24.3229 168.184 24.6875C167.819 25.0521 167.292 25.2669 166.602 25.332V40.9961C167.448 40.9961 168.073 41.1849 168.477 41.5625C168.88 41.9401 169.082 42.4219 169.082 43.0078C169.082 43.5938 168.874 44.0755 168.457 44.4531C168.053 44.8177 167.37 45 166.406 45H161.133C160.182 45 159.499 44.8177 159.082 44.4531C158.678 44.0755 158.477 43.5872 158.477 42.9883C158.477 42.4023 158.678 41.9271 159.082 41.5625C159.499 41.1849 160.182 40.9961 161.133 40.9961H162.598V29.0625L158.008 39.375H154.531L149.883 29.0625ZM183.77 45V44.0625C182.767 44.5964 181.66 44.9935 180.449 45.2539C179.238 45.5273 178.138 45.6641 177.148 45.6641C175 45.6641 173.255 45.0977 171.914 43.9648C170.573 42.819 169.902 41.556 169.902 40.1758C169.902 38.4961 170.755 36.9401 172.461 35.5078C174.18 34.0625 176.549 33.3398 179.57 33.3398C180.781 33.3398 182.181 33.4701 183.77 33.7305V32.7734C183.77 32.1745 183.509 31.6862 182.988 31.3086C182.48 30.931 181.504 30.7422 180.059 30.7422C178.874 30.7422 177.337 30.9766 175.449 31.4453C174.746 31.6146 174.199 31.6992 173.809 31.6992C173.275 31.6992 172.819 31.5104 172.441 31.1328C172.077 30.7422 171.895 30.2474 171.895 29.6484C171.895 29.3099 171.96 29.0169 172.09 28.7695C172.22 28.5221 172.402 28.3268 172.637 28.1836C172.871 28.0273 173.359 27.8451 174.102 27.6367C175.091 27.3633 176.1 27.1484 177.129 26.9922C178.158 26.8229 179.089 26.7383 179.922 26.7383C182.409 26.7383 184.336 27.2786 185.703 28.3594C187.083 29.4271 187.773 30.8919 187.773 32.7539V40.9961H188.457C189.421 40.9961 190.104 41.1849 190.508 41.5625C190.924 41.9271 191.133 42.4089 191.133 43.0078C191.133 43.5938 190.924 44.0755 190.508 44.4531C190.104 44.8177 189.421 45 188.457 45H183.77ZM183.77 37.832C182.168 37.5195 180.69 37.3633 179.336 37.3633C177.708 37.3633 176.309 37.7604 175.137 38.5547C174.408 39.0625 174.043 39.5768 174.043 40.0977C174.043 40.4753 174.219 40.7812 174.57 41.0156C175.221 41.4453 176.113 41.6602 177.246 41.6602C178.21 41.6602 179.297 41.4714 180.508 41.0938C181.732 40.7161 182.819 40.2018 183.77 39.5508V37.832ZM210.43 27.9883C210.911 27.5326 211.406 27.3047 211.914 27.3047C212.487 27.3047 212.956 27.513 213.32 27.9297C213.698 28.3333 213.887 29.0104 213.887 29.9609V32.5391C213.887 33.5026 213.698 34.1862 213.32 34.5898C212.956 34.9935 212.474 35.1953 211.875 35.1953C211.328 35.1953 210.866 35.0391 210.488 34.7266C210.215 34.4922 210 34.0169 209.844 33.3008C209.688 32.5716 209.31 32.0312 208.711 31.6797C207.656 31.0547 206.309 30.7422 204.668 30.7422C202.78 30.7422 201.263 31.2956 200.117 32.4023C198.984 33.5091 198.418 34.9089 198.418 36.6016C198.418 38.1641 198.965 39.401 200.059 40.3125C201.152 41.2109 202.969 41.6602 205.508 41.6602C207.174 41.6602 208.535 41.4909 209.59 41.1523C210.215 40.944 210.807 40.5924 211.367 40.0977C211.927 39.5898 212.435 39.3359 212.891 39.3359C213.438 39.3359 213.906 39.5378 214.297 39.9414C214.701 40.3451 214.902 40.8203 214.902 41.3672C214.902 42.2526 214.297 43.0924 213.086 43.8867C211.289 45.0716 208.659 45.6641 205.195 45.6641C202.083 45.6641 199.661 45.0195 197.93 43.7305C195.586 41.9987 194.414 39.6289 194.414 36.6211C194.414 33.7695 195.365 31.4128 197.266 29.5508C199.167 27.6758 201.647 26.7383 204.707 26.7383C205.814 26.7383 206.842 26.8424 207.793 27.0508C208.743 27.2591 209.622 27.5716 210.43 27.9883ZM238.262 38.1641H221.836C222.253 39.2057 222.988 40.0456 224.043 40.6836C225.111 41.3216 226.549 41.6406 228.359 41.6406C229.844 41.6406 231.816 41.3216 234.277 40.6836C235.293 40.4232 235.996 40.293 236.387 40.293C236.921 40.293 237.37 40.4818 237.734 40.8594C238.099 41.237 238.281 41.7122 238.281 42.2852C238.281 42.806 238.086 43.2487 237.695 43.6133C237.174 44.0951 235.905 44.5573 233.887 45C231.868 45.4297 229.928 45.6445 228.066 45.6445C224.863 45.6445 222.298 44.7396 220.371 42.9297C218.457 41.1198 217.5 38.8932 217.5 36.25C217.5 33.4375 218.535 31.1523 220.605 29.3945C222.689 27.6237 225.085 26.7383 227.793 26.7383C229.421 26.7383 230.911 27.0247 232.266 27.5977C233.633 28.1706 234.648 28.7891 235.312 29.4531C236.25 30.4167 237.025 31.6081 237.637 33.0273C238.053 34.0169 238.262 35.1628 238.262 36.4648V38.1641ZM233.828 34.1602C233.216 33.0143 232.415 32.1615 231.426 31.6016C230.436 31.0286 229.258 30.7422 227.891 30.7422C226.536 30.7422 225.365 31.0286 224.375 31.6016C223.385 32.1615 222.578 33.0143 221.953 34.1602H233.828ZM261.426 19.668V40.9961H262.109C263.06 40.9961 263.743 41.1849 264.16 41.5625C264.577 41.9271 264.785 42.4089 264.785 43.0078C264.785 43.5938 264.577 44.0755 264.16 44.4531C263.757 44.8177 263.073 45 262.109 45H257.422V44.0234C256.51 44.5573 255.553 44.9609 254.551 45.2344C253.561 45.5078 252.533 45.6445 251.465 45.6445C248.457 45.6445 246.035 44.7786 244.199 43.0469C242.363 41.3021 241.445 39.1341 241.445 36.543C241.445 33.8346 242.409 31.5234 244.336 29.6094C246.263 27.6953 248.613 26.7383 251.387 26.7383C252.428 26.7383 253.451 26.901 254.453 27.2266C255.456 27.5391 256.445 28.0143 257.422 28.6523V23.6719H256.738C255.775 23.6719 255.085 23.4896 254.668 23.125C254.264 22.7474 254.062 22.2656 254.062 21.6797C254.062 21.0807 254.264 20.599 254.668 20.2344C255.085 19.8568 255.775 19.668 256.738 19.668H261.426ZM257.422 36.6602C257.422 35.0065 256.842 33.6068 255.684 32.4609C254.525 31.3151 253.105 30.7422 251.426 30.7422C249.759 30.7422 248.346 31.3151 247.188 32.4609C246.029 33.6068 245.449 34.987 245.449 36.6016C245.449 38.0729 245.97 39.2839 247.012 40.2344C248.053 41.1719 249.525 41.6406 251.426 41.6406C253.314 41.6406 254.785 41.1719 255.84 40.2344C256.895 39.2839 257.422 38.0924 257.422 36.6602ZM286.66 36.4648C286.66 38.0013 286.23 39.4922 285.371 40.9375C284.525 42.3698 283.255 43.5156 281.562 44.375C279.883 45.2214 278.125 45.6445 276.289 45.6445C274.466 45.6445 272.721 45.2279 271.055 44.3945C269.388 43.5482 268.118 42.4023 267.246 40.957C266.374 39.5117 265.938 38.0013 265.938 36.4258C265.938 34.8242 266.38 33.2552 267.266 31.7188C268.151 30.1693 269.421 28.9518 271.074 28.0664C272.741 27.181 274.479 26.7383 276.289 26.7383C278.112 26.7383 279.863 27.194 281.543 28.1055C283.236 29.0039 284.512 30.2214 285.371 31.7578C286.23 33.2812 286.66 34.8503 286.66 36.4648ZM282.656 36.4844C282.656 35.1953 282.194 34.0104 281.27 32.9297C280.007 31.4714 278.346 30.7422 276.289 30.7422C274.479 30.7422 272.969 31.3216 271.758 32.4805C270.547 33.6393 269.941 34.9805 269.941 36.5039C269.941 37.7539 270.553 38.9258 271.777 40.0195C273.001 41.1003 274.505 41.6406 276.289 41.6406C278.086 41.6406 279.596 41.1003 280.82 40.0195C282.044 38.9258 282.656 37.7474 282.656 36.4844Z" fill="#4A99FF"/>
</svg>
