<svg width="32" height="32" viewBox="0 0 32 32" fill="none" xmlns="http://www.w3.org/2000/svg">
<path d="M16 8.19995C11.7 8.19995 8.20001 11.7 8.20001 16C8.20001 17.6 8.70001 19 9.40001 20.2L8.70001 23.2L11.8 22.6C13 23.3 14.4 23.8 15.9 23.8C20.2 23.8 23.7 20.3 23.7 16C23.7 11.7 20.3 8.19995 16 8.19995ZM21 19.2C20.6 20.1 19.7 20.5 19.7 20.5C19.7 20.5 19.3 21 17.3 20.6C15.3 20.2 11.5 17 10.9 14.5C10.9 14.5 10.4 12.7 11.7 11.6C11.7 11.6 12.7 10.6 13.1 11.5L13.9 13.2C13.9 13.2 14.2 13.8 13.9 14.2C13.6 14.7 13 14.9 13.6 15.6C14.2 16.3 14.5 16.8 16.5 18.2C16.5 18.2 17.1 18.6 17.5 18.1C17.9 17.6 18 17.6 18 17.6C18 17.6 18 17.3 19.2 17.6C20.3 17.9 20.5 18 20.5 18C20.5 18 21.5 18.3 21 19.2Z" fill="#D9D9D9"/>
<path d="M16 0C7.2 0 0 7.2 0 16C0 24.8 7.2 32 16 32C24.8 32 32 24.8 32 16C32 7.2 24.8 0 16 0ZM16 25.9C14.4 25.9 12.8 25.5 11.5 24.8L6.6 26C6.6 26 6.3 25.9 6.2 25.9C6.1 25.8 6.1 25.6 6.1 25.6L7.1 20.5C6.4 19.2 6.1 17.7 6.1 16.1C6.1 10.6 10.5 6.2 16 6.2C21.5 6.2 25.9 10.6 25.9 16.1C25.9 21.4 21.5 25.9 16 25.9Z" fill="#D9D9D9"/>
</svg>
